# xmcd
#
# Track frame offsets:
#	150
#	9940
#	23308
#	37217
#	50185
#	64415
#	78584
#	92800
#	108448
#	121789
#	137251
#	150909
#
# Disc length: 2200 seconds
#
# Revision: 2
# Processed by: cddbd v1.5.2PL0 Copyright (c) Steve Scherf et al.
# Submitted via: dBpowerAMP V4.0
#
DISCID=8d08960c
DTITLE=Various Artist - The Greatest Big Band - Rhythm
DYEAR=2006
DGENRE=Big Band
TTITLE0=Johnny Green and Edward Heyman - I Cover The Waterfront
TTITLE1=Andy Kirk with His 12 Clouds of Joy - Until the Real Thing Comes Along
TTITLE2=Guy Lonbardo With Vocal Trio - Boo-Hoo
TTITLE3=Les Brown - I've Got My Love To Keep Me Warm
TTITLE4=Count Basie - Blue and Semtimental
TTITLE5=Duke Ellington - Caravan
TTITLE6=Gene Krupa - Drum Boogie
TTITLE7=Artie Shaw - Moonglow
TTITLE8=Neal Hefti - Coral Reef
TTITLE9=Glenn Miller - Tuxedo Junction
TTITLE10=Artie Shaw and His Orchestra - Dancing In The Dark
TTITLE11=Benny Goodman - Goodnight My Love
EXTD=This updates fixes some typos and other errors with this album.\n\nMy name is Dr. Mack Foxx
EXTT0=
EXTT1=
EXTT2=
EXTT3=
EXTT4=
EXTT5=
EXTT6=
EXTT7=
EXTT8=
EXTT9=
EXTT10=
EXTT11=
PLAYORDER=
